<?xml version="1.0" encoding="UTF-8" standalone="no"?>
<!-- Created with Inkscape (http://www.inkscape.org/) -->

<svg
   width="70"
   height="70"
   viewBox="0 0 18.520833 18.520833"
   version="1.1"
   id="svg1"
   xmlns="http://www.w3.org/2000/svg"
   xmlns:svg="http://www.w3.org/2000/svg">
  <defs
     id="defs1" />
  <g
     id="layer1">
    <path
       id="rect2"
       style="fill:#ffffff;stroke-width:0.264583"
       d="M 0.36909375,0 H 18.15174 c 0.204478,0 0.369094,0.16461581 0.369094,0.36909375 V 18.15174 c 0,0.204478 -0.164616,0.369094 -0.369094,0.369094 H 0.36909375 C 0.16461581,18.520834 0,18.356218 0,18.15174 V 0.36909375 C 0,0.16461581 0.16461581,0 0.36909375,0 Z" />
    <path
       style="font-style:italic;font-weight:500;font-size:18.4126px;font-family:Z003;-inkscape-font-specification:'Z003 Medium Italic';fill:#1a1a1a;stroke-width:0.863089"
       d="m 3.064566,14.913088 h 2.3384001 c 3.0196664,0 3.774583,-0.05524 4.7504509,-0.405077 1.473008,-0.497141 2.982841,-1.454596 3.700932,-2.3384 0.939043,-1.159994 1.601897,-3.0933172 1.601897,-4.6583882 0,-1.2704693 -0.662854,-2.2279245 -1.914911,-2.7803025 C 12.749593,4.3810809 11.810551,4.2337801 10.024529,4.1233045 L 10.153417,3.6077517 8.8277097,4.1601297 C 7.3178765,4.4179061 6.3604213,4.7493329 5.3845535,5.3753613 3.8194826,6.3880542 3.064566,7.6216984 3.064566,9.205182 c 0,0.3498394 0.018413,0.5707906 0.1288882,1.031106 L 4.7032874,9.5550214 C 4.5928118,9.0762938 4.5743992,8.8737552 4.5743992,8.5239158 c 0,-2.1910994 1.3625323,-3.4799813 3.9402963,-3.7377577 l -1.380945,5.4869549 c -0.7180914,3.074904 -1.196819,3.645694 -3.1853797,3.792995 z M 9.8772278,4.6940951 c 1.3625322,0.055238 1.9701482,0.1657134 2.5409392,0.460315 0.902217,0.4787276 1.436182,1.4914205 1.436182,2.7250647 0,1.6018962 -0.607615,3.5536322 -1.436182,4.6031502 -0.902218,1.159993 -1.988561,1.601896 -3.8850589,1.601896 H 8.2569191 L 5.9001063,14.01087 C 8.0359679,12.02231 8.0359679,12.02231 8.8645349,8.6896292 Z"
       id="text2"
       aria-label="D" />
    <path
       style="fill:#5fd3bc;fill-opacity:1;stroke-width:0.264583"
       d="M 3.1925699,10.234 4.7046223,9.5549721 4.8007404,9.713102 3.4260612,10.383421 Z"
       id="path2" />
    <path
       id="path3"
       style="fill:#5fd3bc;stroke-width:0.264583"
       d="m 14.990481,14.183659 a 0.61973119,0.61973119 0 0 1 -0.619732,0.619731 0.61973119,0.61973119 0 0 1 -0.619731,-0.619731 0.61973119,0.61973119 0 0 1 0.619731,-0.619732 0.61973119,0.61973119 0 0 1 0.619732,0.619732 z" />
  </g>
</svg>
